<svg width="1200" height="800" viewBox="0 0 1200 800" fill="none" xmlns="http://www.w3.org/2000/svg">
  <rect width="1200" height="800" rx="28" fill="#F8FAFC"/>
  <rect x="90" y="110" width="1020" height="580" rx="24" fill="#E2E8F0"/>
  <rect x="160" y="180" width="520" height="300" rx="20" fill="#FFFFFF"/>
  <rect x="200" y="220" width="300" height="18" rx="9" fill="#94A3B8"/>
  <rect x="200" y="258" width="240" height="14" rx="7" fill="#CBD5E1"/>
  <rect x="200" y="290" width="260" height="14" rx="7" fill="#CBD5E1"/>
  <rect x="200" y="322" width="210" height="14" rx="7" fill="#CBD5E1"/>
  <rect x="760" y="200" width="280" height="300" rx="20" fill="#DBEAFE"/>
  <circle cx="900" cy="290" r="60" fill="#2563EB"/>
  <rect x="828" y="375" width="145" height="16" rx="8" fill="#60A5FA"/>
  <rect x="810" y="410" width="180" height="16" rx="8" fill="#93C5FD"/>
  <rect x="510" y="520" width="180" height="54" rx="27" fill="#2563EB"/>
  <rect x="555" y="540" width="88" height="14" rx="7" fill="#FFFFFF"/>
  <circle cx="220" cy="610" r="16" fill="#22C55E"/>
  <circle cx="270" cy="610" r="16" fill="#22C55E"/>
  <circle cx="320" cy="610" r="16" fill="#22C55E"/>
</svg>
