<svg width="1000" height="700" viewBox="0 0 1000 700" fill="none" xmlns="http://www.w3.org/2000/svg">
  <rect width="1000" height="700" rx="24" fill="#F8FAFC"/>
  <rect x="70" y="90" width="860" height="500" rx="20" fill="#FFFFFF" stroke="#E2E8F0" stroke-width="2"/>
  <rect x="120" y="150" width="250" height="160" rx="14" fill="#FEF2F2"/>
  <rect x="405" y="150" width="250" height="160" rx="14" fill="#FFF7ED"/>
  <rect x="690" y="150" width="190" height="160" rx="14" fill="#EFF6FF"/>
  <rect x="120" y="340" width="360" height="200" rx="14" fill="#F1F5F9"/>
  <rect x="510" y="340" width="370" height="200" rx="14" fill="#F1F5F9"/>
  <circle cx="235" cy="230" r="24" fill="#EF4444"/>
  <path d="M235 213V232L248 240" stroke="#FFFFFF" stroke-width="6" stroke-linecap="round" stroke-linejoin="round"/>
  <circle cx="530" cy="230" r="24" fill="#F97316"/>
  <path d="M530 215V233L543 241" stroke="#FFFFFF" stroke-width="6" stroke-linecap="round" stroke-linejoin="round"/>
  <circle cx="785" cy="230" r="24" fill="#3B82F6"/>
  <path d="M785 214V232L798 240" stroke="#FFFFFF" stroke-width="6" stroke-linecap="round" stroke-linejoin="round"/>
  <rect x="150" y="385" width="280" height="14" rx="7" fill="#94A3B8"/>
  <rect x="150" y="415" width="240" height="12" rx="6" fill="#CBD5E1"/>
  <rect x="150" y="443" width="260" height="12" rx="6" fill="#CBD5E1"/>
  <rect x="540" y="385" width="300" height="14" rx="7" fill="#94A3B8"/>
  <rect x="540" y="415" width="260" height="12" rx="6" fill="#CBD5E1"/>
  <rect x="540" y="443" width="240" height="12" rx="6" fill="#CBD5E1"/>
</svg>
