<svg width="1000" height="700" viewBox="0 0 1000 700" fill="none" xmlns="http://www.w3.org/2000/svg">
  <rect width="1000" height="700" rx="24" fill="#F8FAFC"/>
  <rect x="80" y="90" width="840" height="520" rx="20" fill="#FFFFFF" stroke="#DBE2EA" stroke-width="2"/>
  <rect x="130" y="150" width="740" height="90" rx="14" fill="#EFF6FF"/>
  <rect x="130" y="270" width="740" height="90" rx="14" fill="#F1F5F9"/>
  <rect x="130" y="390" width="740" height="90" rx="14" fill="#F1F5F9"/>
  <circle cx="185" cy="195" r="24" fill="#2563EB"/>
  <circle cx="185" cy="315" r="24" fill="#0EA5E9"/>
  <circle cx="185" cy="435" r="24" fill="#14B8A6"/>
  <path d="M177 195L184 202L196 188" stroke="#FFFFFF" stroke-width="5" stroke-linecap="round" stroke-linejoin="round"/>
  <path d="M177 315L184 322L196 308" stroke="#FFFFFF" stroke-width="5" stroke-linecap="round" stroke-linejoin="round"/>
  <path d="M177 435L184 442L196 428" stroke="#FFFFFF" stroke-width="5" stroke-linecap="round" stroke-linejoin="round"/>
  <rect x="230" y="182" width="390" height="16" rx="8" fill="#1E3A8A"/>
  <rect x="230" y="302" width="350" height="16" rx="8" fill="#334155"/>
  <rect x="230" y="422" width="320" height="16" rx="8" fill="#334155"/>
  <rect x="670" y="174" width="150" height="42" rx="21" fill="#2563EB"/>
  <rect x="708" y="188" width="74" height="14" rx="7" fill="#FFFFFF"/>
  <rect x="670" y="294" width="150" height="42" rx="21" fill="#0EA5E9"/>
  <rect x="708" y="308" width="74" height="14" rx="7" fill="#FFFFFF"/>
  <rect x="670" y="414" width="150" height="42" rx="21" fill="#14B8A6"/>
  <rect x="708" y="428" width="74" height="14" rx="7" fill="#FFFFFF"/>
</svg>
